<svg width="221" height="227" viewBox="0 0 221 227" fill="none" xmlns="http://www.w3.org/2000/svg">
<path d="M220.964 142.434C220.841 147.41 220.845 152.394 220.555 157.361C220.199 163.424 219.488 169.45 218.216 175.404C216.907 181.542 213.827 186.567 209.332 190.808C205.729 194.207 201.819 197.203 197.856 200.137C190.486 205.59 182.765 210.491 174.736 214.869C167.522 218.803 160.135 222.384 152.266 224.812C148.406 226.003 144.504 226.957 140.426 226.999C134.353 227.065 130.022 224.206 127.13 218.928C125.195 215.392 124.349 211.508 123.952 207.532C123.4 202.009 123.551 196.477 124.009 190.95C124.656 183.165 125.355 175.38 125.846 167.586C126.157 162.619 126.124 157.631 125.343 152.688C124.872 149.705 123.928 146.887 122.328 144.318C119.265 139.401 113.478 136.521 108.312 137.654C104.022 138.596 100.938 141.189 98.8035 145.011C96.9672 148.302 96.1983 151.908 95.7934 155.618C95.184 161.196 95.4744 166.769 95.9161 172.334C96.5132 179.853 97.2125 187.368 97.8424 194.884C98.3127 200.494 97.8219 206.038 96.4641 211.491C95.5562 215.135 93.8916 218.367 91.0368 220.87C87.7608 223.745 83.9041 224.816 79.6506 224.596C74.8205 224.343 70.1498 223.223 65.6223 221.575C55.1727 217.766 45.3038 212.711 35.7867 206.926C29.611 203.175 23.6234 199.137 17.9057 194.693C15.1246 192.531 12.5071 190.182 10.0695 187.626C6.9285 184.327 4.9899 180.38 3.84882 175.985C2.11471 169.308 1.37445 162.478 0.732336 155.627C0.131124 149.219 -0.0529202 142.791 0.0125178 136.363C0.106585 126.864 0.699617 117.399 2.62595 108.07C3.41939 104.236 4.40914 100.467 6.13506 96.936C9.37016 90.3254 15.0142 87.2379 22.2369 88.1094C27.0343 88.6862 31.4187 90.5121 35.6517 92.7572C40.0279 95.081 44.0809 97.9319 48.1545 100.746C54.6492 105.223 61.0867 109.796 67.6468 114.174C71.4709 116.726 75.5566 118.851 79.9778 120.196C83.2456 121.192 86.5789 121.598 89.9489 120.822C96.096 119.407 99.9896 114.456 100.043 108.049C100.084 103.343 98.0919 99.5089 94.9631 96.2098C91.7076 92.7821 87.8181 90.2299 83.7323 87.9476C77.3848 84.4036 70.796 81.366 64.2154 78.3034C59.2748 76.0044 54.3997 73.5685 49.7822 70.6388C46.4326 68.5141 43.1975 66.2192 40.7354 63.0239C37.6598 59.0359 36.0893 54.5791 37.0382 49.4624C37.6762 46.0305 39.4308 43.1422 41.6025 40.5196C45.496 35.8178 49.9704 31.7261 54.7842 28.0121C61.5897 22.7584 68.8247 18.1812 76.2519 13.8945C83.2088 9.88163 90.407 6.39581 97.8342 3.38306C101.147 2.03852 104.529 0.897331 108.067 0.31636C112.82 -0.463802 117.449 0.254113 121.903 1.86423C126.271 3.44115 130.541 5.30026 134.815 7.13447C141.817 10.1389 148.496 13.8115 155.043 17.704C163.334 22.634 171.235 28.1366 178.425 34.6352C181.546 37.457 184.335 40.5777 186.396 44.2959C189.312 49.5537 188.961 54.7285 185.848 59.7663C183.652 63.3227 180.626 66.0657 177.329 68.5307C172.573 72.087 167.317 74.7429 162.017 77.3241C155.195 80.6439 148.324 83.8683 141.535 87.2628C136.729 89.6656 132.218 92.5829 128.23 96.2596C125.903 98.405 123.964 100.829 123.056 103.962C121.478 109.406 123.224 115.232 127.547 118.822C131.94 122.47 136.823 123.051 142.062 121.092C147.097 119.208 151.878 116.76 156.336 113.747C162.581 109.531 168.687 105.107 174.892 100.833C179.006 98.0025 183.129 95.1765 187.636 92.9978C191.014 91.367 194.507 90.1179 198.261 89.7527C205.365 89.0555 211.05 92.2052 214.281 98.6499C216.432 102.945 217.729 107.526 218.588 112.245C220.42 122.221 221.181 132.284 220.964 142.434ZM25.9055 150.29C25.8605 153.577 25.9792 156.847 26.4822 160.104C27.3615 165.785 29.7091 170.678 33.8767 174.628C37.2918 177.865 41.1076 180.521 45.2179 182.75C48.997 184.8 52.911 186.497 57.1358 187.36C58.6941 187.68 60.2728 187.812 61.8596 187.559C65.6591 186.949 67.9249 184.555 69.1601 181.011C70.2521 177.89 70.3748 174.624 70.4034 171.363C70.4443 166.52 69.8431 161.743 68.8329 157.021C67.8922 152.63 66.199 148.597 63.2175 145.215C58.2319 139.559 52.4693 134.882 45.86 131.309C43.4102 129.981 40.8704 128.844 38.0811 128.454C34.1139 127.898 30.9238 129.508 28.9443 133.023C27.84 134.985 27.1979 137.11 26.7358 139.301C25.971 142.924 25.8646 146.605 25.9055 150.29ZM195.607 152.282C195.668 152.278 195.73 152.274 195.791 152.269C195.55 149.248 195.411 146.211 195.042 143.206C194.654 140.052 193.897 136.973 192.331 134.164C190.302 130.529 187.002 128.856 182.932 129.408C180.568 129.728 178.38 130.603 176.258 131.653C170.524 134.492 165.505 138.322 161.015 142.899C157.771 146.207 155.338 149.995 154.013 154.477C152.074 161.03 151.281 167.752 151.363 174.575C151.399 177.508 151.837 180.409 152.945 183.152C154.328 186.576 156.733 188.684 160.479 188.962C162.233 189.09 163.959 188.829 165.632 188.319C173.534 185.899 180.646 182.019 186.826 176.434C190.789 172.852 193.468 168.507 194.552 163.192C195.296 159.59 195.55 155.95 195.607 152.282ZM110.566 69.0784C113.482 69.0743 115.854 68.7382 118.185 68.1364C124.108 66.6093 129.703 64.2564 134.962 61.1108C137.682 59.4841 140.254 57.6582 142.246 55.1102C144.757 51.9024 145.048 48.3627 143.064 44.8146C141.559 42.1297 139.396 40.0382 137.064 38.1127C132.59 34.4194 127.58 31.6598 122.292 29.3815C116.046 26.6883 109.732 26.3522 103.323 28.759C97.6052 30.9086 92.3701 33.9463 87.54 37.6977C85.1392 39.561 82.9225 41.6359 81.2416 44.2212C78.6772 48.1635 78.8981 52.1224 81.851 55.7701C83.3315 57.6043 85.1474 59.0525 87.0778 60.3473C91.1145 63.0529 95.4621 65.1486 100.002 66.8334C103.572 68.1613 107.229 69.095 110.566 69.0784Z" fill="url(#paint0_linear_57_978)"/>
<defs>
<linearGradient id="paint0_linear_57_978" x1="110.5" y1="30.9842" x2="110.5" y2="227" gradientUnits="userSpaceOnUse">
<stop stop-color="#2FDDCF"/>
<stop offset="1" stop-color="#E98815"/>
</linearGradient>
</defs>
</svg>
